<mxfile host="app.diagrams.net" modified="2024-06-18T15:57:22.688Z" agent="Mozilla/5.0 (Macintosh; Intel Mac OS X 10_15_7) AppleWebKit/537.36 (KHTML, like Gecko) Chrome/125.0.0.0 Safari/537.36" etag="kjM8YYCC9VodZfnzYSrJ" version="24.5.4" type="github">
  <diagram id="C5RBs43oDa-KdzZeNtuy" name="Page-1">
    <mxGraphModel dx="876" dy="503" grid="1" gridSize="10" guides="1" tooltips="1" connect="1" arrows="1" fold="1" page="1" pageScale="1" pageWidth="827" pageHeight="1169" math="0" shadow="0">
      <root>
        <mxCell id="WIyWlLk6GJQsqaUBKTNV-0" />
        <mxCell id="WIyWlLk6GJQsqaUBKTNV-1" parent="WIyWlLk6GJQsqaUBKTNV-0" />
        <mxCell id="WIyWlLk6GJQsqaUBKTNV-2" value="" style="rounded=0;html=1;jettySize=auto;orthogonalLoop=1;fontSize=11;endArrow=block;endFill=0;endSize=8;strokeWidth=1;shadow=0;labelBackgroundColor=none;edgeStyle=orthogonalEdgeStyle;" parent="WIyWlLk6GJQsqaUBKTNV-1" source="WIyWlLk6GJQsqaUBKTNV-3" target="WIyWlLk6GJQsqaUBKTNV-6" edge="1">
          <mxGeometry relative="1" as="geometry" />
        </mxCell>
        <mxCell id="WIyWlLk6GJQsqaUBKTNV-3" value="按住说话" style="rounded=1;whiteSpace=wrap;html=1;fontSize=12;glass=0;strokeWidth=1;shadow=0;" parent="WIyWlLk6GJQsqaUBKTNV-1" vertex="1">
          <mxGeometry x="160" y="80" width="120" height="40" as="geometry" />
        </mxCell>
        <mxCell id="-dxhQLAiEZVsB0S3CAxM-2" value="" style="edgeStyle=orthogonalEdgeStyle;rounded=0;orthogonalLoop=1;jettySize=auto;html=1;" edge="1" parent="WIyWlLk6GJQsqaUBKTNV-1" source="WIyWlLk6GJQsqaUBKTNV-6" target="-dxhQLAiEZVsB0S3CAxM-1">
          <mxGeometry relative="1" as="geometry" />
        </mxCell>
        <mxCell id="-dxhQLAiEZVsB0S3CAxM-11" value="是" style="edgeLabel;html=1;align=center;verticalAlign=middle;resizable=0;points=[];" vertex="1" connectable="0" parent="-dxhQLAiEZVsB0S3CAxM-2">
          <mxGeometry x="-0.28" y="1" relative="1" as="geometry">
            <mxPoint as="offset" />
          </mxGeometry>
        </mxCell>
        <mxCell id="-dxhQLAiEZVsB0S3CAxM-8" value="" style="edgeStyle=orthogonalEdgeStyle;rounded=0;orthogonalLoop=1;jettySize=auto;html=1;" edge="1" parent="WIyWlLk6GJQsqaUBKTNV-1" source="WIyWlLk6GJQsqaUBKTNV-6" target="-dxhQLAiEZVsB0S3CAxM-7">
          <mxGeometry relative="1" as="geometry" />
        </mxCell>
        <mxCell id="-dxhQLAiEZVsB0S3CAxM-10" value="否" style="edgeLabel;html=1;align=center;verticalAlign=middle;resizable=0;points=[];" vertex="1" connectable="0" parent="-dxhQLAiEZVsB0S3CAxM-8">
          <mxGeometry x="-0.2444" y="-1" relative="1" as="geometry">
            <mxPoint as="offset" />
          </mxGeometry>
        </mxCell>
        <mxCell id="WIyWlLk6GJQsqaUBKTNV-6" value="是否音频数据&amp;nbsp;" style="rhombus;whiteSpace=wrap;html=1;shadow=0;fontFamily=Helvetica;fontSize=12;align=center;strokeWidth=1;spacing=6;spacingTop=-4;" parent="WIyWlLk6GJQsqaUBKTNV-1" vertex="1">
          <mxGeometry x="170" y="170" width="100" height="80" as="geometry" />
        </mxCell>
        <mxCell id="-dxhQLAiEZVsB0S3CAxM-13" style="edgeStyle=orthogonalEdgeStyle;rounded=0;orthogonalLoop=1;jettySize=auto;html=1;" edge="1" parent="WIyWlLk6GJQsqaUBKTNV-1" source="-dxhQLAiEZVsB0S3CAxM-1" target="-dxhQLAiEZVsB0S3CAxM-12">
          <mxGeometry relative="1" as="geometry" />
        </mxCell>
        <mxCell id="-dxhQLAiEZVsB0S3CAxM-1" value="音频文件转Base64" style="whiteSpace=wrap;html=1;shadow=0;strokeWidth=1;spacing=6;spacingTop=-4;rounded=1;" vertex="1" parent="WIyWlLk6GJQsqaUBKTNV-1">
          <mxGeometry x="320" y="180" width="120" height="60" as="geometry" />
        </mxCell>
        <mxCell id="-dxhQLAiEZVsB0S3CAxM-7" value="实时文本数据" style="rounded=1;whiteSpace=wrap;html=1;shadow=0;strokeWidth=1;spacing=6;spacingTop=-4;" vertex="1" parent="WIyWlLk6GJQsqaUBKTNV-1">
          <mxGeometry x="160" y="320" width="120" height="60" as="geometry" />
        </mxCell>
        <mxCell id="-dxhQLAiEZVsB0S3CAxM-18" value="" style="edgeStyle=orthogonalEdgeStyle;rounded=0;orthogonalLoop=1;jettySize=auto;html=1;" edge="1" parent="WIyWlLk6GJQsqaUBKTNV-1" source="-dxhQLAiEZVsB0S3CAxM-12" target="-dxhQLAiEZVsB0S3CAxM-17">
          <mxGeometry relative="1" as="geometry" />
        </mxCell>
        <mxCell id="-dxhQLAiEZVsB0S3CAxM-12" value="聚合接口" style="rhombus;whiteSpace=wrap;html=1;" vertex="1" parent="WIyWlLk6GJQsqaUBKTNV-1">
          <mxGeometry x="340" y="310" width="80" height="80" as="geometry" />
        </mxCell>
        <mxCell id="-dxhQLAiEZVsB0S3CAxM-14" style="edgeStyle=orthogonalEdgeStyle;rounded=0;orthogonalLoop=1;jettySize=auto;html=1;entryX=0;entryY=0.5;entryDx=0;entryDy=0;" edge="1" parent="WIyWlLk6GJQsqaUBKTNV-1" source="-dxhQLAiEZVsB0S3CAxM-7" target="-dxhQLAiEZVsB0S3CAxM-12">
          <mxGeometry relative="1" as="geometry" />
        </mxCell>
        <mxCell id="-dxhQLAiEZVsB0S3CAxM-20" value="" style="edgeStyle=orthogonalEdgeStyle;rounded=0;orthogonalLoop=1;jettySize=auto;html=1;" edge="1" parent="WIyWlLk6GJQsqaUBKTNV-1" source="-dxhQLAiEZVsB0S3CAxM-17" target="-dxhQLAiEZVsB0S3CAxM-19">
          <mxGeometry relative="1" as="geometry" />
        </mxCell>
        <mxCell id="-dxhQLAiEZVsB0S3CAxM-21" value="是" style="edgeLabel;html=1;align=center;verticalAlign=middle;resizable=0;points=[];" vertex="1" connectable="0" parent="-dxhQLAiEZVsB0S3CAxM-20">
          <mxGeometry x="-0.3511" relative="1" as="geometry">
            <mxPoint as="offset" />
          </mxGeometry>
        </mxCell>
        <mxCell id="-dxhQLAiEZVsB0S3CAxM-23" value="" style="edgeStyle=orthogonalEdgeStyle;rounded=0;orthogonalLoop=1;jettySize=auto;html=1;" edge="1" parent="WIyWlLk6GJQsqaUBKTNV-1" source="-dxhQLAiEZVsB0S3CAxM-17" target="-dxhQLAiEZVsB0S3CAxM-22">
          <mxGeometry relative="1" as="geometry" />
        </mxCell>
        <mxCell id="-dxhQLAiEZVsB0S3CAxM-24" value="否" style="edgeLabel;html=1;align=center;verticalAlign=middle;resizable=0;points=[];" vertex="1" connectable="0" parent="-dxhQLAiEZVsB0S3CAxM-23">
          <mxGeometry x="-0.2444" y="1" relative="1" as="geometry">
            <mxPoint as="offset" />
          </mxGeometry>
        </mxCell>
        <mxCell id="-dxhQLAiEZVsB0S3CAxM-17" value="是否存在&lt;div&gt;data:audio/&lt;/div&gt;" style="rhombus;whiteSpace=wrap;html=1;" vertex="1" parent="WIyWlLk6GJQsqaUBKTNV-1">
          <mxGeometry x="325" y="450" width="110" height="110" as="geometry" />
        </mxCell>
        <mxCell id="-dxhQLAiEZVsB0S3CAxM-28" value="" style="edgeStyle=orthogonalEdgeStyle;rounded=0;orthogonalLoop=1;jettySize=auto;html=1;" edge="1" parent="WIyWlLk6GJQsqaUBKTNV-1" source="-dxhQLAiEZVsB0S3CAxM-19" target="-dxhQLAiEZVsB0S3CAxM-25">
          <mxGeometry relative="1" as="geometry" />
        </mxCell>
        <mxCell id="-dxhQLAiEZVsB0S3CAxM-19" value="调用录音文件极速版识别工具类" style="whiteSpace=wrap;html=1;" vertex="1" parent="WIyWlLk6GJQsqaUBKTNV-1">
          <mxGeometry x="510" y="475" width="120" height="60" as="geometry" />
        </mxCell>
        <mxCell id="-dxhQLAiEZVsB0S3CAxM-26" value="" style="edgeStyle=orthogonalEdgeStyle;rounded=0;orthogonalLoop=1;jettySize=auto;html=1;" edge="1" parent="WIyWlLk6GJQsqaUBKTNV-1" source="-dxhQLAiEZVsB0S3CAxM-22" target="-dxhQLAiEZVsB0S3CAxM-25">
          <mxGeometry relative="1" as="geometry" />
        </mxCell>
        <mxCell id="-dxhQLAiEZVsB0S3CAxM-22" value="默认文本数据" style="whiteSpace=wrap;html=1;" vertex="1" parent="WIyWlLk6GJQsqaUBKTNV-1">
          <mxGeometry x="320" y="620" width="120" height="60" as="geometry" />
        </mxCell>
        <mxCell id="-dxhQLAiEZVsB0S3CAxM-30" value="" style="edgeStyle=orthogonalEdgeStyle;rounded=0;orthogonalLoop=1;jettySize=auto;html=1;" edge="1" parent="WIyWlLk6GJQsqaUBKTNV-1" source="-dxhQLAiEZVsB0S3CAxM-25" target="-dxhQLAiEZVsB0S3CAxM-29">
          <mxGeometry relative="1" as="geometry" />
        </mxCell>
        <mxCell id="-dxhQLAiEZVsB0S3CAxM-25" value="元器API" style="rhombus;whiteSpace=wrap;html=1;" vertex="1" parent="WIyWlLk6GJQsqaUBKTNV-1">
          <mxGeometry x="530" y="610" width="80" height="80" as="geometry" />
        </mxCell>
        <mxCell id="-dxhQLAiEZVsB0S3CAxM-32" value="" style="edgeStyle=orthogonalEdgeStyle;rounded=0;orthogonalLoop=1;jettySize=auto;html=1;" edge="1" parent="WIyWlLk6GJQsqaUBKTNV-1" source="-dxhQLAiEZVsB0S3CAxM-29" target="-dxhQLAiEZVsB0S3CAxM-31">
          <mxGeometry relative="1" as="geometry" />
        </mxCell>
        <mxCell id="-dxhQLAiEZVsB0S3CAxM-29" value="语音合成结果" style="whiteSpace=wrap;html=1;" vertex="1" parent="WIyWlLk6GJQsqaUBKTNV-1">
          <mxGeometry x="510" y="740" width="120" height="60" as="geometry" />
        </mxCell>
        <mxCell id="-dxhQLAiEZVsB0S3CAxM-31" value="结果和语音一起返回前端" style="rounded=1;whiteSpace=wrap;html=1;" vertex="1" parent="WIyWlLk6GJQsqaUBKTNV-1">
          <mxGeometry x="510" y="860" width="120" height="60" as="geometry" />
        </mxCell>
      </root>
    </mxGraphModel>
  </diagram>
</mxfile>
